<?xml version="1.0"?>
<svg xmlns="http://www.w3.org/2000/svg" id="_x31__x2C_5" enable-background="new 0 0 36 36" height="512px" viewBox="0 0 36 36" width="512px" class=""><g><g><path d="m27.623 4.167c-6.917 0-11.667-3.583-15-3.583s-10.333 1.916-10.333 17.249 9.417 17.583 13.083 17.583c17.167.001 24.5-31.249 12.25-31.249z" fill="#efefef" data-original="#EFEFEF" class="" style="fill:#D2D2D2" data-old_color="#efefef"/></g><g><path d="m5.5 8c-.827 0-1.5-.673-1.5-1.5s.673-1.5 1.5-1.5 1.5.673 1.5 1.5-.673 1.5-1.5 1.5zm0-2c-.276 0-.5.224-.5.5s.224.5.5.5.5-.224.5-.5-.224-.5-.5-.5z" fill="#a4afc1" data-original="#A4AFC1" class="active-path" style="fill:#D32D3D" data-old_color="#a4afc1"/></g><g><path d="m18.897 7.839 1.969-.895c1.142-.519 2.485.037 2.926 1.212l.76 2.025c.22.586.682 1.048 1.268 1.268l2.025.76c1.175.441 1.731 1.784 1.212 2.926l-.895 1.969c-.259.57-.259 1.223 0 1.793l.895 1.969c.519 1.142-.037 2.485-1.212 2.926l-2.025.76c-.586.22-1.048.682-1.268 1.268l-.76 2.025c-.441 1.175-1.784 1.731-2.926 1.212l-1.969-.895c-.57-.259-1.223-.259-1.793 0l-1.969.895c-1.142.519-2.485-.037-2.926-1.212l-.76-2.025c-.22-.586-.682-1.048-1.268-1.268l-2.025-.76c-1.175-.441-1.731-1.784-1.212-2.926l.895-1.969c.259-.57.259-1.223 0-1.793l-.895-1.969c-.519-1.142.037-2.485 1.212-2.926l2.025-.76c.586-.22 1.048-.682 1.268-1.268l.76-2.025c.441-1.175 1.784-1.731 2.926-1.212l1.969.895c.569.259 1.223.259 1.793 0z" fill="#2fdf84" data-original="#2FDF84" class="" style="fill:#D32D3D" data-old_color="#2fdf84"/></g><g><path d="m14.459 27.843-.76-2.025c-.22-.586-.682-1.048-1.268-1.268l-2.025-.76c-1.175-.441-1.731-1.784-1.212-2.926l.895-1.969c.259-.57.259-1.223 0-1.793l-.895-1.969c-.519-1.142.037-2.485 1.212-2.926l2.025-.76c.586-.22 1.048-.682 1.268-1.268l.76-2.025c.181-.484.52-.854.93-1.096l-.254-.115c-1.142-.519-2.485.037-2.926 1.212l-.76 2.025c-.22.586-.682 1.048-1.268 1.268l-2.025.76c-1.175.441-1.731 1.784-1.212 2.926l.895 1.969c.259.57.259 1.223 0 1.793l-.895 1.969c-.519 1.142.037 2.485 1.212 2.926l2.025.76c.586.22 1.048.682 1.268 1.268l.76 2.025c.441 1.175 1.784 1.731 2.926 1.212l.254-.115c-.41-.243-.749-.614-.93-1.098z" fill="#00b871" data-original="#00B871" class="" style="fill:#AE2230" data-old_color="#00b871"/></g><g><path d="m14.238 29.999c-.38 0-.76-.074-1.116-.221-.744-.308-1.333-.917-1.615-1.671l-.76-2.024c-.144-.384-.446-.686-.829-.83l-2.025-.76c-.753-.282-1.362-.871-1.67-1.615s-.294-1.591.04-2.324l.895-1.968c.169-.373.169-.8 0-1.173l-.894-1.969c-.333-.732-.348-1.58-.04-2.323s.917-1.333 1.671-1.615l2.024-.76c.384-.144.686-.446.83-.829l.76-2.025c.282-.753.871-1.362 1.615-1.67s1.591-.294 2.324.04l1.968.895c.372.168.799.168 1.173 0l1.969-.895c.732-.334 1.58-.347 2.323-.04.744.308 1.333.917 1.615 1.671l.76 2.024c.144.384.446.686.829.83l2.025.76c.753.282 1.362.871 1.67 1.615s.294 1.591-.04 2.324l-.895 1.968c-.169.373-.169.8 0 1.173l.894 1.969c.333.732.348 1.58.04 2.323s-.917 1.333-1.671 1.615l-2.024.76c-.384.144-.686.446-.83.829l-.76 2.025c-.282.753-.871 1.362-1.615 1.67s-1.591.294-2.324-.04l-1.968-.895c-.373-.169-.8-.169-1.173 0l-1.969.894c-.382.175-.795.262-1.207.262zm.001-22.499c-.184 0-.367.036-.543.109-.367.152-.646.44-.785.812l-.76 2.025c-.296.789-.918 1.411-1.707 1.707l-2.024.76c-.372.139-.66.418-.812.785-.152.366-.145.768.019 1.128l.895 1.969c.349.767.349 1.646 0 2.413l-.895 1.969c-.164.361-.171.763-.019 1.129.152.367.44.646.812.785l2.025.76c.789.296 1.411.918 1.707 1.707l.76 2.024c.139.372.418.66.785.812.366.151.768.146 1.128-.019l1.969-.895c.767-.349 1.646-.348 2.413 0l1.969.895c.363.165.763.17 1.129.019.367-.152.646-.44.785-.812l.76-2.025c.296-.789.918-1.411 1.707-1.707l2.024-.76c.372-.139.66-.418.812-.785.152-.366.145-.768-.019-1.128l-.895-1.969c-.349-.767-.349-1.646 0-2.413l.895-1.969c.164-.361.171-.763.019-1.129-.152-.367-.44-.646-.812-.785l-2.025-.76c-.789-.296-1.411-.918-1.707-1.707l-.76-2.024c-.139-.372-.418-.66-.785-.812-.366-.151-.767-.145-1.128.019l-1.969.895c-.767.348-1.646.348-2.413 0l-1.969-.895c-.189-.086-.387-.128-.586-.128z" data-original="#000000" class="" style="fill:#FFFFFF" data-old_color="#000000"/></g><g><path d="m13.25 21h-2.25v-1.5h2.25c.138 0 .25-.112.25-.25v-4.25h1.5v4.25c0 .965-.785 1.75-1.75 1.75z" data-original="#000000" class="" style="fill:#FFFFFF" data-old_color="#000000"/></g><g><path d="m18.25 21h-.5c-.965 0-1.75-.785-1.75-1.75v-2.5c0-.965.785-1.75 1.75-1.75h.5c.965 0 1.75.785 1.75 1.75v2.5c0 .965-.785 1.75-1.75 1.75zm-.5-4.5c-.138 0-.25.112-.25.25v2.5c0 .138.112.25.25.25h.5c.138 0 .25-.112.25-.25v-2.5c0-.138-.112-.25-.25-.25z" data-original="#000000" class="" style="fill:#FFFFFF" data-old_color="#000000"/></g><g><path d="m23.13 21h-1.38c-.414 0-.75-.336-.75-.75v-4.5c0-.414.336-.75.75-.75h1.38c1.031 0 1.87.839 1.87 1.87 0 .424-.139.815-.374 1.129.235.313.374.701.374 1.121 0 1.041-.839 1.88-1.87 1.88zm-.63-1.5h.63c.204 0 .37-.166.37-.37 0-.214-.166-.38-.37-.38h-.63zm0-2.25h.63c.204 0 .37-.166.37-.37 0-.214-.166-.38-.37-.38h-.63z" data-original="#000000" class="" style="fill:#FFFFFF" data-old_color="#000000"/></g></g> </svg>
