<svg id="Capa_1" enable-background="new 0 0 512 512" height="512" viewBox="0 0 512 512" width="512" xmlns="http://www.w3.org/2000/svg"><g><g><g><path d="m159.842 376.644c7.208 0 22.526 4.853 38.925 10.95 1.35.502 2.787-.5 2.787-1.94v-58.66c0-8.57-6.948-15.518-15.518-15.518h-57.701c-1.436 0-2.437-1.43-1.943-2.779 5.67-15.47 10.055-29.649 10.055-36.501 0-19.382-15.712-35.094-35.094-35.094s-35.094 15.712-35.094 35.094c0 6.852 4.385 21.03 10.056 36.501.494 1.349-.506 2.779-1.943 2.779h-57.823c-8.571 0-15.518 6.948-15.518 15.518v169.487c0 8.57 6.948 15.518 15.518 15.518h169.487c8.571 0 15.518-6.948 15.518-15.518v-58.66c0-1.44-1.437-2.442-2.787-1.94-16.399 6.097-31.717 10.95-38.925 10.95-19.382 0-35.094-15.712-35.094-35.094 0-19.381 15.712-35.093 35.094-35.093z" fill="#cbafea"/></g><g><g><path d="m198.767 435.882c-7.977 2.966-15.689 5.631-22.345 7.593v27.876c0 8.571-6.948 15.518-15.518 15.518h-159.874v9.613c0 8.57 6.948 15.518 15.519 15.518h169.487c8.57 0 15.518-6.948 15.518-15.518v-58.66c0-1.44-1.437-2.442-2.787-1.94z" fill="#bc95e2"/></g><g><path d="m186.035 311.477h-9.613v68.525c6.656 1.962 14.368 4.627 22.345 7.593 1.35.502 2.787-.5 2.787-1.94v-58.66c0-8.571-6.948-15.518-15.519-15.518z" fill="#bc95e2"/></g></g></g><g><g><path d="m240.871 65.229c-6.851 0-21.03 4.385-36.501 10.056-1.349.494-2.779-.506-2.779-1.943v-57.824c0-8.57-6.947-15.518-15.518-15.518h-169.487c-8.57 0-15.518 6.948-15.518 15.518v169.487c0 8.571 6.948 15.518 15.518 15.518h58.66c1.44 0 2.442-1.437 1.94-2.787-6.097-16.399-10.95-31.717-10.95-38.925 0-19.382 15.712-35.094 35.094-35.094s35.094 15.712 35.094 35.094c0 7.208-4.854 22.526-10.95 38.925-.502 1.35.5 2.787 1.94 2.787h58.66c8.571 0 15.518-6.948 15.518-15.518v-57.701c0-1.436 1.43-2.437 2.779-1.943 15.47 5.67 29.649 10.055 36.501 10.055 19.382 0 35.094-15.712 35.094-35.094-.001-19.381-15.713-35.093-35.095-35.093z" fill="#aad880"/></g><g><g><path d="m249.709 66.353c.733 2.824 1.124 5.785 1.124 8.838 0 19.382-15.712 35.094-35.094 35.094-6.851 0-21.031-4.385-36.501-10.055-1.349-.494-2.779.506-2.779 1.943v57.701c0 8.571-6.948 15.518-15.518 15.518h-27.876c-1.962 6.656-4.627 14.368-7.593 22.345-.502 1.35.5 2.787 1.94 2.787h58.66c8.57 0 15.518-6.948 15.518-15.518v-57.701c0-1.436 1.43-2.437 2.779-1.943 15.47 5.67 29.649 10.055 36.501 10.055 19.382 0 35.094-15.712 35.094-35.094.001-16.329-11.152-30.051-26.255-33.97z" fill="#80cb8e"/></g></g></g><g><g><path d="m495.451 0h-169.486c-8.571 0-15.518 6.948-15.518 15.518v58.66c0 1.44 1.437 2.442 2.787 1.94 16.399-6.097 31.717-10.95 38.925-10.95 19.382 0 35.094 15.712 35.094 35.094s-15.712 35.094-35.094 35.094c-7.208 0-22.526-4.853-38.925-10.95-1.35-.502-2.787.5-2.787 1.94v58.66c0 8.571 6.948 15.518 15.518 15.518h57.701c1.436 0 2.437 1.43 1.943 2.779-5.67 15.47-10.055 29.649-10.055 36.501 0 19.382 15.712 35.094 35.094 35.094s35.094-15.712 35.094-35.094c0-6.851-4.385-21.03-10.055-36.501-.494-1.349.506-2.779 1.943-2.779h57.824c8.571 0 15.518-6.948 15.518-15.518v-169.488c-.002-8.57-6.95-15.518-15.521-15.518z" fill="#ffd064"/></g><g><g><path d="m495.451 0h-9.613v159.874c0 8.571-6.948 15.518-15.518 15.518h-57.824c-1.437 0-2.437 1.43-1.943 2.779 5.67 15.47 10.055 29.649 10.055 36.501 0 19.382-15.712 35.094-35.094 35.094-3.053 0-6.015-.391-8.839-1.124 3.919 15.103 17.641 26.255 33.97 26.255 19.382 0 35.094-15.712 35.094-35.094 0-6.852-4.385-21.031-10.055-36.501-.494-1.349.506-2.779 1.943-2.779h57.824c8.571 0 15.518-6.948 15.518-15.518v-169.487c.001-8.57-6.947-15.518-15.518-15.518z" fill="#ecbe6b"/></g></g></g><g><g><path d="m436.754 311.477c-1.44 0-2.442 1.437-1.94 2.787 6.097 16.399 10.95 31.717 10.95 38.925 0 19.382-15.712 35.094-35.094 35.094s-35.094-15.712-35.094-35.094c0-7.208 4.853-22.526 10.95-38.925.502-1.35-.5-2.787-1.94-2.787h-58.66c-8.57 0-15.518 6.948-15.518 15.518v57.701c0 1.436-1.43 2.437-2.779 1.943-15.47-5.67-29.649-10.055-36.501-10.055-19.382 0-35.094 15.712-35.094 35.094s15.712 35.094 35.094 35.094c6.851 0 21.03-4.385 36.501-10.056 1.349-.494 2.779.506 2.779 1.943v57.824c0 8.57 6.948 15.518 15.518 15.518h169.487c8.57 0 15.518-6.948 15.518-15.518v-169.488c0-8.57-6.948-15.518-15.518-15.518z" fill="#9dc6fb"/></g><g><g><path d="m495.414 311.477h-9.613v159.873c0 8.571-6.948 15.518-15.518 15.518h-159.874v9.613c0 8.571 6.948 15.518 15.518 15.518h169.487c8.571 0 15.518-6.948 15.518-15.518v-169.486c0-8.571-6.948-15.518-15.518-15.518z" fill="#80b4fb"/></g></g></g></g></svg>