<?xml version="1.0"?>
<svg xmlns="http://www.w3.org/2000/svg" id="Capa_1" enable-background="new 0 0 512 512" height="512px" viewBox="0 0 512 512" width="512px" class=""><g><g><path d="m406 60c-24.814 0-45-20.186-45-45v-15h-105-105v15c0 24.814-20.186 45-45 45h-45v143.76c0 128.921 72.144 246.805 188.291 304.886l6.709 3.354 6.709-3.354c116.147-58.082 188.291-175.965 188.291-304.886v-143.76z" fill="#e6f7ff" data-original="#E6F7FF" class=""/><path d="m451 203.76v-143.76h-45c-24.814 0-45-20.186-45-45v-15h-105v512l6.709-3.354c116.147-58.082 188.291-175.965 188.291-304.886z" fill="#cce6ff" data-original="#CCE6FF" class="active-path" style="fill:#FFFFFF" data-old_color="#cce6ff"/><path d="m406 90c-36.226 0-66.519-25.811-73.491-60h-76.509-76.509c-6.972 34.189-37.265 60-73.491 60h-15v113.76c0 114.976 63.032 220.569 165 274.593 101.968-54.023 165-159.617 165-274.593v-113.76z" fill="#fc6" data-original="#FC6" class="" data-old_color="#fc6" style="fill:#FB5252"/><path d="m421 203.76v-113.76h-15c-36.226 0-66.519-25.811-73.491-60h-76.509v448.353c101.968-54.024 165-159.618 165-274.593z" fill="#ffa64d" data-original="#FFA64D" class="" style="fill:#C12020" data-old_color="#ffa64d"/><path d="m316 90v75h-30v-45h-60v45h-30v-75z" fill="#333e73" data-original="#333E73" class="" style="fill:#FFFFFF" data-old_color="#333e73"/><path d="m376 271v60h-240v-60l30-31h180z" fill="#333e73" data-original="#333E73" class="" style="fill:#FFFFFF" data-old_color="#333e73"/><path d="m286 120h-30v-30h60v75h-30z" fill="#1f2859" data-original="#1F2859" class="" style="fill:#FFFFFF" data-old_color="#1f2859"/><path d="m376 271v60h-120v-91h90z" fill="#1f2859" data-original="#1F2859" class="" style="fill:#FFFFFF" data-old_color="#1f2859"/><path d="m136 150h240v121h-240z" fill="#4da6ff" data-original="#4DA6FF" class="" style="fill:#C12020" data-old_color="#4da6ff"/><path d="m256 150h120v121h-120z" fill="#4d88ff" data-original="#4D88FF" class="" style="fill:#FB5252" data-old_color="#4d88ff"/></g></g> </svg>
